<?xml version="1.0" encoding="UTF-8"?>
<svg width="355px" height="240px" viewBox="0 0 355 240" version="1.1" xmlns="http://www.w3.org/2000/svg" xmlns:xlink="http://www.w3.org/1999/xlink">
    <!-- Generator: Sketch 46.2 (44496) - http://www.bohemiancoding.com/sketch -->
    <title>logo</title>
    <desc>Created with Sketch.</desc>
    <defs></defs>
    <g id="WEB" stroke="none" stroke-width="1" fill="none" fill-rule="evenodd">
        <g id="SiteWeb-Jideka_Flinto" transform="translate(-101.000000, -90.000000)" fill="#FFFFFF">
            <g id="logo" transform="translate(100.000000, 90.000000)">
                <g>
                    <path d="M145.827618,0.540694225 C147.337658,0.57230889 146.370896,2.69070607 146.104196,3.58590042 C145.746195,4.60572828 145.478295,5.3394408 145.300495,5.78703797 C145.033795,6.45843374 144.811549,7.15219895 144.633749,7.86835443 L143.166908,12.0309873 C142.722409,13.3737789 142.255692,14.7389298 141.766742,16.126481 C141.277793,17.5140323 140.766626,18.8791832 140.233227,20.2219747 C139.255328,22.9970772 138.25522,25.7497585 137.232871,28.4801013 C136.210523,31.210444 135.210414,33.9183663 134.232515,36.6039494 C132.187818,42.0646349 130.098702,47.4804795 127.965105,52.8516456 C125.831508,58.2228117 123.609044,63.5938972 121.297647,68.9650633 C118.986251,74.3362294 116.674888,79.6401763 114.363492,84.8770633 C112.052095,90.1139502 109.651834,95.4178972 107.162637,100.789063 C104.673441,106.07071 102.162057,111.285139 99.6284102,116.432506 C97.0947636,121.579874 94.4500319,126.749544 91.6941356,131.941671 C88.9382393,137.044279 86.1601598,142.12443 83.3598136,147.182278 C80.5594674,152.240127 77.6035907,157.23076 74.4920949,162.154329 C71.469499,167.167417 68.3580499,172.068533 65.1576542,176.857823 C61.9572586,181.647113 58.5791138,186.413951 55.0231186,191.158481 C51.5560233,195.903011 47.9556322,200.468434 44.2218373,204.854886 C42.3549398,207.092872 40.4436211,209.286065 38.4878237,211.434532 C36.5320264,213.582998 34.5318091,215.686673 32.4871119,217.74562 C28.4866173,221.773995 24.1305885,225.668032 19.4188949,229.427848 C14.8850011,233.187664 10.0844796,236.544593 5.01718644,239.498734 C4.48378716,239.767292 3.92817125,239.812052 3.35032203,239.633013 C2.77247282,239.453974 2.35020472,239.14066 2.08350508,238.693063 C1.46120593,237.439791 1.68345229,236.455092 2.75025085,235.738937 C7.37304458,232.874315 11.9068704,229.562145 16.3518644,225.802329 C18.5743614,223.922421 20.6857019,221.997782 22.6859492,220.028354 C24.6861964,218.058927 26.6641891,216.04477 28.6199864,213.985823 C30.5757838,211.926876 32.4648779,209.823201 34.2873254,207.674734 C36.109773,205.526268 37.9099685,203.333074 39.6879661,201.095089 C41.4659637,198.857103 43.1994853,196.596771 44.8885831,194.314025 C46.5776808,192.03128 48.2667531,189.726189 49.9558508,187.398684 C53.2451464,182.654153 56.3788201,177.887315 59.3569661,173.098025 C62.3351121,168.308736 65.2465394,163.40762 68.0913356,158.394532 C70.9361317,153.381443 73.6919867,148.346051 76.3589831,143.288203 C79.0259794,138.230354 81.6484865,133.150203 84.2265831,128.047595 C86.7157797,122.855468 89.1382651,117.663418 91.4941119,112.471291 C93.8499587,107.279164 96.1835455,102.042356 98.4949424,96.7607089 C100.806339,91.4790622 103.051028,86.1974948 105.229075,80.9158481 C107.407122,75.6342014 109.518462,70.307875 111.563159,64.9367089 C113.607857,59.5655428 115.608074,54.1944572 117.563871,48.8232911 C119.519669,43.452125 121.430987,38.0362805 123.297885,32.5755949 C124.275783,29.8900119 125.209218,27.1820896 126.098217,24.4517468 C126.987216,21.7214041 127.876201,19.0134818 128.7652,16.3278987 C129.209699,15.0746266 129.587518,13.8661324 129.898668,12.7023797 C130.075176,12.0422103 130.835544,8.26968894 131.586183,7.5694009 C138.314887,1.29204245 139.237322,0.402717719 145.827618,0.540694225 Z" id="j"></path>
                    <path d="M129.965342,103.877468 C129.787543,104.146027 129.676419,104.414581 129.631969,104.683139 C129.58752,104.951698 129.476396,105.175493 129.298597,105.354532 L128.7652,106.965873 L127.565058,110.188557 L125.298122,116.633924 C124.586923,118.78239 123.920184,120.930825 123.297885,123.079291 C122.675586,125.227758 122.097745,127.420951 121.564346,129.658937 L119.964156,136.104304 C119.786356,137.268056 119.608559,138.387033 119.430759,139.461266 C119.25296,140.535499 119.119612,141.609716 119.030712,142.683949 L118.764014,145.235241 L119.164061,144.832405 C119.87526,144.02673 120.586448,143.198688 121.297647,142.348253 C122.008846,141.497819 122.720035,140.580258 123.431234,139.595544 C124.142433,138.70035 124.831397,137.805169 125.498146,136.909975 C126.164895,136.01478 126.853859,135.119599 127.565058,134.224405 L135.566007,123.21357 L143.433607,111.934177 L147.167383,106.294481 C148.411981,104.414573 149.656561,102.489934 150.901159,100.520506 C151.345659,99.8043508 151.945724,99.3791399 152.701373,99.2448608 C153.457022,99.1105816 154.190435,99.2672383 154.901634,99.7148354 C155.612833,100.162433 156.057326,100.76668 156.235125,101.527595 C156.412925,102.28851 156.279577,103.027034 155.835078,103.74319 C155.835078,103.832709 155.812853,103.877468 155.768403,103.877468 C155.723953,103.877468 155.701729,103.922227 155.701729,104.011747 C154.279331,105.802136 152.901403,107.614877 151.567905,109.450025 C150.234407,111.285174 148.900929,113.142674 147.567431,115.022582 L139.566481,126.033418 L131.565532,137.31281 L127.565058,142.818228 L123.431234,148.323646 L122.231092,149.800709 C121.875492,150.427345 121.475449,150.874935 121.030949,151.143494 C120.942049,151.322533 120.719803,151.591087 120.364203,151.949165 L120.097505,152.217722 L119.697458,152.486278 L119.430759,152.620557 L119.29741,152.754835 L119.164061,152.754835 L119.030712,152.889114 L118.764014,152.889114 C118.764014,152.978633 118.675115,153.023392 118.497315,153.023392 L118.097268,153.023392 C117.830568,153.112912 117.719445,153.135291 117.763895,153.090532 C117.808345,153.045772 117.78612,153.023392 117.69722,153.023392 L117.430522,153.023392 C117.163822,153.023392 116.763779,152.933874 116.23038,152.754835 C115.96368,152.665316 115.741434,152.575798 115.563634,152.486278 C115.385834,152.396759 115.208037,152.262482 115.030237,152.083443 C114.496838,151.546326 114.096795,151.009218 113.830095,150.472101 C113.652295,150.114024 113.474498,149.666433 113.296698,149.129316 C113.118899,148.5922 113.03,148.234127 113.03,148.055089 C112.9411,147.607491 112.874426,147.22704 112.829976,146.913722 C112.785526,146.600403 112.763302,146.264711 112.763302,145.906633 C112.674402,144.74288 112.674402,143.489627 112.763302,142.146835 C112.763302,141.520199 112.785526,140.915952 112.829976,140.334076 C112.874426,139.7522 112.9411,139.192712 113.03,138.655595 C113.03,138.028959 113.052225,137.424712 113.096675,136.842835 C113.141125,136.260959 113.207798,135.656712 113.296698,135.030076 L113.830095,131.538835 L114.230142,128.181873 L116.630427,114.35119 L119.030712,100.654785 C119.297412,99.043435 120.097498,97.7901817 121.430997,96.8949873 C122.764495,95.999793 124.186872,95.6864797 125.698169,95.955038 C127.209467,96.2235963 128.431822,97.0292591 129.365271,98.3720506 C130.29872,99.7148422 130.58764,101.147132 130.232041,102.668962 C130.232041,102.93752 130.143142,103.340352 129.965342,103.877468 Z M128.631851,65.2052658 L129.431946,57.6856709 C129.609746,56.0743211 130.320934,54.7539292 131.565532,53.7244557 C132.810131,52.6949822 134.232507,52.2697713 135.832705,52.4488101 C137.344003,52.627849 138.610807,53.3439937 139.633156,54.5972658 C140.655505,55.8505379 141.077773,57.2828274 140.899973,58.8941772 C140.722173,59.6103327 140.544376,60.1922003 140.366576,60.6397975 L137.166197,67.6222785 C136.632797,68.7860311 135.788261,69.5693144 134.632563,69.9721519 C133.476864,70.3749894 132.321183,70.3078508 131.165485,69.7707342 C130.276486,69.323137 129.587522,68.6965104 129.098573,67.8908354 C128.609624,67.0851605 128.454051,66.1899796 128.631851,65.2052658 Z" id="i"></path>
                    <path d="M174.37061,76.4846582 C175.081809,74.6942695 175.748548,72.9039077 176.370847,71.113519 L180.104624,60.3712405 C180.371323,59.3865267 180.660244,58.4689663 180.971393,57.6185316 C181.282543,56.768097 181.571463,55.8952956 181.838163,55.0001013 C182.460462,53.2097126 183.060527,51.3969712 183.638376,49.5618228 C184.216225,47.7266744 184.771841,45.869174 185.305241,43.9892658 L186.905431,38.6181266 L187.705525,35.7982785 L187.705525,35.664 L188.372271,33.3812658 L188.638969,32.8441519 C189.172369,31.3223215 190.128028,30.2481044 191.505976,29.6214684 C192.883924,28.9948323 194.328526,28.9948323 195.839824,29.6214684 C197.351122,30.158585 198.417904,31.0985249 199.040203,32.4413165 C199.662503,33.784108 199.751401,35.1716384 199.306902,36.6039494 L198.106759,40.3637468 L196.906617,44.2578228 L194.506332,51.9116962 C193.795133,54.5077598 193.039496,57.081405 192.239397,59.6327089 C191.439298,62.1840128 190.68366,64.7576579 189.972461,67.3537215 C188.461163,72.4563293 186.994337,77.5812401 185.571939,82.7286076 C184.149541,87.8759751 182.816063,93.0456449 181.571464,98.2377722 C180.860265,100.833836 180.193526,103.42986 179.571227,106.025924 L177.704339,113.814076 C176.459741,119.095723 175.392958,124.332531 174.503959,129.524658 C173.97056,132.120722 173.503843,134.716747 173.103793,137.31281 C172.703744,139.908874 172.325925,142.504898 171.970325,145.100962 C171.792526,146.443754 171.659178,147.764145 171.570278,149.062177 C171.481378,150.360209 171.436929,151.635842 171.436929,152.889114 C171.348029,153.068153 171.30358,153.381466 171.30358,153.829063 L172.237024,152.620557 C173.037123,151.456804 173.814985,150.293069 174.570634,149.129316 C175.326283,147.965564 176.059696,146.75707 176.770895,145.503797 C178.282193,143.176292 179.771244,140.804063 181.238092,138.387038 C182.70494,135.970013 184.149541,133.553025 185.571939,131.136 L194.106285,116.365367 L202.373932,101.460456 C202.729532,100.83382 203.218474,100.430988 203.840773,100.251949 C204.463072,100.07291 205.085362,100.162429 205.707661,100.520506 C206.32996,100.878584 206.730004,101.370934 206.907803,101.99757 C207.085603,102.624206 206.996705,103.250832 206.641105,103.877468 C205.307607,106.384013 203.974129,108.86814 202.640631,111.329924 C201.307132,113.791709 199.929205,116.275836 198.506807,118.78238 C197.084409,121.288924 195.684257,123.773051 194.306308,126.234835 C192.92836,128.69662 191.483759,131.180747 189.972461,133.687291 C188.550063,136.193835 187.105462,138.655583 185.638614,141.072608 C184.171766,143.489632 182.682715,145.906621 181.171417,148.323646 C180.460218,149.576918 179.70458,150.785412 178.904481,151.949165 C178.104382,153.112917 177.304296,154.321411 176.504197,155.574684 C176.059697,156.20132 175.637429,156.805567 175.23738,157.387443 C174.83733,157.969319 174.415062,158.528807 173.970563,159.065924 C173.170464,160.229677 172.281478,161.393412 171.30358,162.557165 C170.85908,163.183801 170.28124,163.519493 169.570041,163.564253 C168.858842,163.609013 168.236552,163.407597 167.703153,162.96 C167.258653,162.601922 166.947508,162.109573 166.769708,161.482937 C166.591909,160.766781 166.458561,160.050636 166.369661,159.334481 L166.102963,157.186025 C166.014063,156.46987 165.947389,155.753725 165.902939,155.03757 C165.858489,154.321414 165.836264,153.605269 165.836264,152.889114 L165.836264,148.726481 C165.836264,147.383689 165.925163,145.996159 166.102963,144.563848 C166.280762,141.878265 166.503009,139.170343 166.769708,136.44 C167.036408,133.709657 167.392002,131.001735 167.836502,128.316152 C168.192101,125.630569 168.592145,122.945026 169.036644,120.259443 C169.481143,117.57386 169.925636,114.933076 170.370136,112.337013 C170.814635,109.65143 171.303577,106.988266 171.836976,104.347443 C172.370376,101.70662 172.903767,99.0434565 173.437166,96.3578734 C173.437166,95.9997957 173.481615,95.7312414 173.570515,95.5522025 C173.126016,96.268358 172.748197,97.0292618 172.437047,97.8349367 C172.125898,98.6406116 171.792528,99.4015154 171.436929,100.117671 C169.836731,103.608929 168.192108,107.077755 166.50301,110.524253 C164.813912,113.970751 163.080391,117.394818 161.302393,120.796557 L155.701729,131.001722 C154.72383,132.613071 153.701497,134.246777 152.634698,135.902886 C151.5679,137.558996 150.412219,139.147942 149.16762,140.669772 L147.167383,142.952506 C146.722884,143.400104 146.32284,143.780555 145.967241,144.093873 C145.611641,144.407191 145.211598,144.742884 144.767098,145.100962 L143.433607,146.17519 L141.966766,146.980861 C141.522267,147.1599 140.944426,147.338936 140.233227,147.517975 L139.166434,147.786532 C138.988634,147.786532 138.766388,147.764152 138.499688,147.719392 C138.232988,147.674633 138.010742,147.652253 137.832942,147.652253 C137.477343,147.562734 137.03285,147.338938 136.499451,146.980861 C136.232751,146.801822 136.032729,146.622786 135.89938,146.443747 C135.76603,146.264708 135.610457,146.085672 135.432658,145.906633 C135.254858,145.638075 135.077061,145.235243 134.899261,144.698127 L134.632563,143.758177 C134.543663,143.31058 134.499214,142.728712 134.499214,142.012557 C134.499214,141.206882 134.543663,140.625014 134.632563,140.266937 C134.721463,138.387029 135.077057,136.417631 135.699356,134.358684 C135.877156,133.37397 136.121627,132.41165 136.432776,131.471696 C136.743926,130.531742 137.032846,129.569423 137.299546,128.584709 L139.299783,123.079291 C140.010982,121.288902 140.744395,119.498541 141.500044,117.708152 C142.255693,115.917763 143.078005,114.127401 143.967003,112.337013 C144.411503,111.441818 144.833771,110.569017 145.23382,109.718582 C145.63387,108.868148 146.056138,107.995346 146.500637,107.100152 C146.945137,106.115438 147.434079,105.197878 147.967478,104.347443 C148.500877,103.497008 149.034269,102.624207 149.567668,101.729013 C149.834367,101.281415 150.101063,100.856205 150.367763,100.453367 C150.634462,100.05053 150.945607,99.6253187 151.301207,99.1777215 L153.301444,96.4921519 C153.745943,96.0445547 154.190436,95.6193438 154.634936,95.2165063 C155.079435,94.8136689 155.612826,94.3884579 156.235125,93.9408608 C156.590725,93.7618219 156.946319,93.5604062 157.301919,93.3366076 C157.657518,93.112809 158.057562,92.9113933 158.502061,92.7323544 L159.968902,92.329519 C160.146701,92.2399996 160.457846,92.1952405 160.902346,92.1952405 L161.702441,92.1952405 C162.947039,92.1057211 164.036046,92.4190344 164.969495,93.1351899 C165.902944,93.8513454 166.591907,94.7912853 167.036407,95.955038 L170.770183,86.2869873 C172.014781,83.0642877 173.214912,79.7968773 174.37061,76.4846582 Z M160.902346,102.400405 L161.035695,102.400405 C161.124595,102.400405 161.169044,102.355646 161.169044,102.266127 C161.257944,102.266127 161.302393,102.221368 161.302393,102.131848 L161.035695,102.131848 L160.2356,102.534684 L159.302156,103.071797 L157.435268,104.548861 L155.701729,106.428759 C155.07943,107.144915 154.479364,107.83868 153.901515,108.510076 C153.323666,109.181472 152.76805,109.875237 152.234651,110.591392 L149.16762,115.156861 C148.189722,116.768211 147.256287,118.401916 146.367288,120.058025 C145.478289,121.714135 144.633753,123.392599 143.833654,125.093468 C143.389155,125.899143 142.989111,126.727186 142.633512,127.57762 C142.277912,128.428055 141.922318,129.300856 141.566719,130.196051 C141.211119,131.091245 140.899974,131.964046 140.633275,132.814481 C140.366575,133.664916 140.099879,134.537717 139.83318,135.432911 L139.166434,138.118481 L138.766386,140.669772 L138.766386,142.952506 L139.033085,143.48962 L139.299783,143.48962 L140.233227,143.086785 L141.166671,142.549671 L142.100115,141.744 C142.722414,141.385922 143.344704,140.804055 143.967003,139.99838 C144.322603,139.640302 144.633748,139.304609 144.900447,138.991291 C145.167147,138.677973 145.433843,138.34228 145.700542,137.984203 L148.900922,133.418734 C149.789921,131.986423 150.723356,130.375098 151.701254,128.584709 L154.501586,123.616405 C154.946086,122.81073 155.368354,121.982688 155.768403,121.132253 C156.168453,120.281819 156.590721,119.453776 157.03522,118.648101 C158.279819,115.872999 159.524398,113.120317 160.768997,110.389975 C162.013595,107.659632 163.258175,104.862192 164.502773,101.99757 C164.147173,102.176608 163.813804,102.310886 163.502654,102.400405 C163.191505,102.489924 162.813686,102.534684 162.369186,102.534684 C161.924687,102.624203 161.435745,102.579444 160.902346,102.400405 Z" id="d"></path>
                    <path d="M200.106997,132.613063 L199.306902,135.970025 L198.773505,139.326987 C198.506805,141.654493 198.373458,143.847686 198.373458,145.906633 C198.373458,146.44375 198.395682,146.980858 198.440132,147.517975 C198.484582,148.055091 198.551256,148.547441 198.640156,148.995038 L199.440251,151.546329 C199.529151,151.725368 199.618049,151.882025 199.706949,152.016304 C199.795849,152.150583 199.884748,152.30724 199.973647,152.486278 L200.507044,152.889114 C200.862644,153.068153 201.08489,153.157671 201.17379,153.157671 L202.240583,153.157671 C202.951782,153.157671 203.751869,152.933876 204.640868,152.486278 C205.529867,152.21772 206.418852,151.725371 207.307851,151.009215 C208.28575,150.472099 209.19696,149.845472 210.041508,149.129316 C210.886057,148.413161 211.708369,147.652257 212.508468,146.846582 C213.308567,146.130427 214.108654,145.347143 214.908753,144.496709 C215.708851,143.646274 216.464489,142.773473 217.175688,141.878278 C218.686986,140.177409 220.198261,138.387047 221.709559,136.507139 C222.420758,135.611945 223.109722,134.694384 223.776471,133.75443 C224.44322,132.814476 225.132184,131.852157 225.843383,130.867443 L229.843858,125.093468 C231.177356,123.124041 232.44416,121.154643 233.644308,119.185215 C234.844457,117.215788 236.066812,115.201631 237.31141,113.142684 L242.512027,103.877468 L243.312122,102.266127 L244.112217,100.789063 C244.556716,99.9833884 245.179006,99.4239003 245.979105,99.1105823 C246.779204,98.7972643 247.579291,98.8644028 248.37939,99.312 C249.179489,99.7595972 249.735105,100.386224 250.046254,101.191899 C250.357404,101.997574 250.29073,102.803236 249.846231,103.608911 L249.712881,103.74319 L247.845993,106.965873 L245.979105,110.054278 L244.112217,113.008405 C243.756617,113.545522 243.445473,114.08263 243.178773,114.619747 C242.912073,115.156863 242.600928,115.649213 242.245329,116.09681 C241.000731,118.155757 239.733926,120.192294 238.444878,122.206481 C237.15583,124.220668 235.800127,126.212446 234.377729,128.181873 L230.377254,134.090127 L225.976732,139.99838 C225.265533,140.983094 224.53212,141.923033 223.776471,142.818228 C223.020822,143.713422 222.24296,144.653362 221.442861,145.638076 C220.642762,146.62279 219.842675,147.54035 219.042576,148.390785 C218.242477,149.241219 217.353492,150.114021 216.375593,151.009215 C215.486594,151.90441 214.575384,152.777211 213.641936,153.627646 C212.708487,154.47808 211.708378,155.261364 210.64158,155.977519 L208.908041,157.051747 L207.174502,157.991696 C206.463303,158.260255 205.752114,158.506429 205.040915,158.730228 C204.329716,158.954026 203.574079,159.155442 202.77398,159.334481 L200.640393,159.334481 C200.551493,159.334481 200.484819,159.312101 200.440369,159.267342 C200.39592,159.222582 200.329246,159.200203 200.240346,159.200203 C199.262447,159.021164 198.373462,158.752609 197.573363,158.394532 C197.128863,158.125973 196.72882,157.857419 196.37322,157.588861 C196.017621,157.320302 195.662027,157.006989 195.306427,156.648911 C195.039727,156.290834 194.773032,155.955141 194.506332,155.641823 C194.239633,155.328505 194.017386,154.948053 193.839586,154.500456 C193.661787,154.142378 193.506214,153.806685 193.372864,153.493367 C193.239515,153.180049 193.083942,152.844356 192.906142,152.486278 C192.728343,152.128201 192.617219,151.770128 192.572769,151.412051 C192.52832,151.053973 192.461646,150.695901 192.372746,150.337823 C192.194946,149.621667 192.061598,148.950282 191.972698,148.323646 L191.706,146.443747 C191.6171,145.727591 191.572651,145.056206 191.572651,144.42957 L191.572651,138.655595 L191.839349,134.895797 L192.239397,131.270278 C192.594996,128.763734 192.99504,126.301987 193.439539,123.884962 C193.884038,121.467937 194.461879,119.050949 195.173078,116.633924 C195.350878,116.007288 195.50645,115.403041 195.6398,114.821165 C195.77315,114.239288 195.928722,113.6798 196.106522,113.142684 L197.173315,109.517165 C197.617815,108.263892 198.062307,107.100157 198.506807,106.025924 L199.840298,102.534684 C200.373698,101.281411 200.907089,100.095297 201.440488,98.9763038 C201.973887,97.8573109 202.596177,96.7159552 203.307376,95.5522025 C203.662976,95.0150859 203.996345,94.4555978 204.307495,93.8737215 C204.618644,93.2918452 204.996463,92.7323571 205.440963,92.1952405 C205.885462,91.5686045 206.329955,90.9867369 206.774454,90.4496203 C207.218954,89.9125036 207.707896,89.330636 208.241295,88.704 L209.974834,87.0926582 L212.241769,85.4813165 C212.686269,85.3022776 213.175211,85.1008619 213.70861,84.8770633 C214.242009,84.6532647 214.81985,84.451849 215.442149,84.2728101 C215.619949,84.2728101 215.797746,84.2504306 215.975546,84.2056709 C216.153346,84.1609112 216.331143,84.1385316 216.508942,84.1385316 L218.642529,84.1385316 C218.909228,84.1385316 219.309272,84.2280497 219.842671,84.4070886 C220.73167,84.5861275 221.531757,84.9441998 222.242956,85.4813165 C222.687455,85.6603553 223.065274,85.9065301 223.376424,86.2198481 L224.243193,87.0926582 L225.443336,88.972557 L226.110081,90.5838987 L226.643478,93.4037468 C226.732378,93.851344 226.776827,94.2541754 226.776827,94.6122532 L226.776827,95.686481 C226.776827,96.4921559 226.754602,97.2306802 226.710153,97.9020759 C226.665703,98.5734717 226.599029,99.2672369 226.510129,99.9833924 L225.710034,103.877468 C225.443334,105.13074 225.132189,106.361614 224.77659,107.570127 C224.42099,108.778639 224.020947,109.964754 223.576447,111.128506 C223.398648,111.755142 223.198626,112.359389 222.976376,112.941266 C222.754127,113.523142 222.509656,114.08263 222.242956,114.619747 L221.57621,116.365367 L221.176163,117.305316 L220.776115,118.110987 C220.242716,119.364259 219.664875,120.572754 219.042576,121.736506 C218.420277,122.900259 217.709089,124.019235 216.90899,125.093468 C216.46449,125.630585 216.042222,126.167694 215.642173,126.70481 C215.242123,127.241927 214.819855,127.734276 214.375356,128.181873 C213.397457,129.345626 212.286225,130.285566 211.041627,131.001722 C210.508228,131.449319 209.841489,131.85215 209.04139,132.210228 C208.59689,132.389267 208.174622,132.523544 207.774573,132.613063 C207.374523,132.702583 206.952255,132.792101 206.507756,132.88162 L204.907566,132.88162 C204.196367,132.702581 203.662976,132.523545 203.307376,132.344506 L201.840536,131.538835 C201.573836,131.270277 201.262691,130.867446 200.907092,130.330329 L200.640393,130.061772 L200.106997,132.613063 Z M204.24082,121.870785 L204.24082,123.482127 C204.24082,124.019243 204.28527,124.511593 204.374169,124.95919 L204.774217,126.167696 L205.174264,126.973367 C205.263164,127.062887 205.352063,127.107646 205.440963,127.107646 L205.84101,127.107646 C206.01881,127.107646 206.285506,127.018127 206.641105,126.839089 L207.574549,126.167696 C207.930149,125.899138 208.263518,125.585825 208.574668,125.227747 C208.885817,124.869669 209.219187,124.466838 209.574786,124.019241 L211.174976,121.467949 C212.152875,119.409002 212.908513,117.439604 213.441912,115.559696 C213.441912,115.380657 213.464137,115.24638 213.508586,115.156861 C213.553036,115.067341 213.575261,114.933064 213.575261,114.754025 L213.70861,113.948354 L214.108658,112.202734 L214.775403,108.845772 C214.953203,107.682019 215.108776,106.540664 215.242125,105.421671 C215.375475,104.302678 215.486598,103.206081 215.575498,102.131848 L215.842197,99.043443 L215.842197,97.1635443 C215.486597,97.521622 215.042104,98.0587306 214.508705,98.7748861 C213.886406,99.4910416 213.308565,100.341463 212.775166,101.326177 C212.152867,102.221372 211.575026,103.161312 211.041627,104.146025 C210.508228,105.130739 210.019286,106.115438 209.574786,107.100152 C208.596888,108.890541 207.707902,110.725661 206.907803,112.60557 C206.107704,114.485478 205.352067,116.365358 204.640868,118.245266 C204.374168,119.498538 204.24082,120.707032 204.24082,121.870785 Z" id="e"></path>
                    <path d="M244.378915,101.460456 C245.712413,99.8491059 246.912544,98.1035031 247.979342,96.2235949 C249.312841,94.3436868 250.468522,92.5085659 251.44642,90.7181772 L254.6468,84.9442025 L256.24699,82.1243544 L257.713831,79.1702278 C258.780629,77.2008003 259.847412,75.2537818 260.91421,73.3291139 C261.981009,71.4044461 263.003342,69.4574276 263.981241,67.488 C264.959139,65.5185724 265.981473,63.5715539 267.048271,61.6468861 C268.11507,59.7222182 269.137403,57.7304407 270.115302,55.6714937 L273.048983,49.7632405 C274.026882,47.7938129 275.004766,45.7796559 275.982664,43.7207089 L278.782997,37.6781772 L279.583092,36.2011139 C279.760891,35.9325556 279.894239,35.6863809 279.983139,35.4625823 C280.072039,35.2387837 280.160937,34.9926089 280.249837,34.7240506 C280.427637,34.2764535 280.605434,33.6945859 280.783234,32.9784304 C280.961034,32.6203526 281.049932,32.3517984 281.049932,32.1727595 L281.183281,31.7699241 L281.316631,31.2328101 C281.40553,30.0690575 281.672226,28.8158042 282.116725,27.4730127 C282.294525,26.8463766 282.561221,26.21975 282.91682,25.5931139 L283.183519,25.056 C283.272419,24.8769611 283.405766,24.6979249 283.583566,24.5188861 C283.761366,24.3398472 283.916938,24.160811 284.050288,23.9817722 C284.183638,23.8027333 284.38366,23.6236971 284.650359,23.4446582 L285.583803,22.6389873 L287.183993,21.9675949 C287.717392,21.7885561 288.206335,21.699038 288.650834,21.699038 L289.050881,21.699038 C289.139781,21.699038 289.295354,21.6766585 289.517603,21.6318987 C289.739853,21.587139 290.20657,21.6990366 290.917769,21.9675949 C291.806768,22.2361532 292.562406,22.6837437 293.184705,23.3103797 C293.451405,23.4894186 293.651426,23.7132138 293.784776,23.9817722 C293.918126,24.2503305 294.073699,24.4741257 294.251498,24.6531646 L294.651546,25.5931139 C294.740446,25.7721528 294.784895,25.995948 294.784895,26.2645063 C294.873795,26.3540258 294.918244,26.4883029 294.918244,26.6673418 L294.918244,27.0701772 C295.007144,27.2492161 295.029369,27.4058727 294.984919,27.5401519 C294.940469,27.6744311 294.918244,27.8310877 294.918244,28.0101266 L294.918244,28.9500759 C294.918244,29.1291148 294.896019,29.2410124 294.851569,29.2857722 C294.80712,29.3305319 294.784895,29.4424295 294.784895,29.6214684 C294.784895,29.8005072 294.76267,29.9795434 294.71822,30.1585823 C294.67377,30.3376211 294.651546,30.5166573 294.651546,30.6956962 L294.118149,32.5755949 L293.718102,34.1869367 L291.717864,40.7665823 L289.584278,47.2119494 C288.16188,51.4193628 286.695054,55.6043336 285.183756,59.7669873 C283.672458,63.9296411 282.161183,68.1146119 280.649885,72.3220253 C279.138587,76.5294388 277.582862,80.6696505 275.982664,84.7427848 C274.382467,88.8159191 272.782293,92.9561309 271.182095,97.1635443 C269.492997,101.281438 267.848374,105.399271 266.248176,109.517165 C264.647978,113.635059 262.958906,117.752891 261.180908,121.870785 L257.047085,131.807392 C258.736182,130.017004 260.380806,128.159503 261.981003,126.234835 C263.581201,124.310168 265.181375,122.407908 266.781573,120.528 C268.470671,118.558572 270.137518,116.589174 271.782166,114.619747 C273.426814,112.650319 275.138111,110.680921 276.916108,108.711494 C277.716207,107.72678 278.538519,106.742081 279.383068,105.757367 C280.227617,104.772653 281.138827,103.787954 282.116725,102.803241 C283.805823,100.923332 285.672693,99.0434524 287.71739,97.1635443 C288.161889,96.7159471 288.650831,96.2683567 289.184231,95.8207595 L290.78442,94.4779747 L294.118149,92.060962 C294.740448,91.6133649 295.384963,91.2105334 296.051712,90.8524557 C296.718461,90.494378 297.407425,90.1363056 298.118624,89.7782278 L300.652258,88.972557 C301.185657,88.7935181 301.674599,88.704 302.119098,88.704 C302.296898,88.6144806 302.541369,88.5697215 302.852519,88.5697215 L304.519383,88.5697215 C304.697183,88.5697215 304.830531,88.592101 304.919431,88.6368608 C305.00833,88.6816205 305.141678,88.704 305.319478,88.704 C305.852877,88.8830389 306.252921,89.0620751 306.51962,89.2411139 C306.78632,89.3306334 307.275262,89.6439467 307.986461,90.1810633 C308.51986,90.8972188 308.875454,91.4790864 309.053254,91.9266835 C309.231054,92.1952418 309.342177,92.4861756 309.386627,92.7994937 C309.431077,93.1128117 309.497751,93.3589864 309.586651,93.5380253 L309.586651,94.8808101 C309.586651,95.059849 309.564426,95.2165057 309.519976,95.3507848 C309.475526,95.485064 309.453302,95.5969616 309.453302,95.686481 L309.186603,96.4921519 C309.186603,96.5816713 309.164379,96.6488099 309.119929,96.6935696 C309.075479,96.7383293 309.053254,96.8054679 309.053254,96.8949873 L308.653207,97.8349367 L307.853112,99.043443 C307.586412,99.4015208 307.341941,99.7372136 307.119692,100.050532 C306.897442,100.36385 306.652971,100.654783 306.386271,100.923342 L304.919431,102.534684 L301.985749,105.354532 L298.918719,107.905823 C297.94082,108.801017 296.918487,109.629059 295.851688,110.389975 C294.78489,111.15089 293.762556,111.934173 292.784658,112.739848 L286.517247,117.305316 L280.383186,122.005063 C279.405288,122.721219 278.516302,123.414984 277.716203,124.08638 C276.916104,124.757776 276.071568,125.406782 275.182569,126.033418 C275.09367,126.481015 275.04922,126.906226 275.04922,127.309063 L275.04922,132.344506 C274.96032,133.597778 274.938096,134.873411 274.982546,136.171443 C275.026996,137.469475 275.04922,138.745108 275.04922,139.99838 C275.04922,142.594443 275.115894,145.168089 275.249244,147.719392 C275.382594,150.270696 275.538166,152.799582 275.715966,155.306127 C275.804866,155.932763 275.87154,156.559389 275.91599,157.186025 C275.96044,157.812661 276.071563,158.439288 276.249363,159.065924 C276.338263,159.69256 276.404937,160.296807 276.449386,160.878684 C276.493836,161.46056 276.60496,162.064807 276.782759,162.691443 L277.182807,164.437063 L277.716203,165.779848 C277.716203,165.690329 277.760653,165.64557 277.849553,165.64557 L278.382949,165.108456 L279.583092,163.765671 L281.850027,160.811544 L286.250549,154.500456 C289.006445,150.203523 291.695626,145.884275 294.318173,141.542582 C296.940719,137.20089 299.541002,132.792124 302.119098,128.316152 L309.72,114.888304 L313.453776,108.17438 L317.054203,101.460456 C317.409803,100.83382 317.92097,100.408609 318.587719,100.18481 C319.254468,99.9610115 319.898982,100.02815 320.521281,100.386228 C321.143581,100.744306 321.543624,101.259035 321.721424,101.93043 C321.899223,102.601826 321.810325,103.250832 321.454725,103.877468 C318.876629,108.44296 316.320796,112.918864 313.787149,117.305316 C311.253503,121.691769 308.65322,126.122914 305.986224,130.598886 C304.741625,132.836872 303.452596,135.052445 302.119098,137.245671 C300.7856,139.438897 299.452122,141.65447 298.118624,143.892456 C296.785126,146.130442 295.429423,148.323635 294.051475,150.472101 C292.673526,152.620568 291.273374,154.769002 289.850976,156.917468 L287.71739,160.140152 C287.006191,161.214385 286.250553,162.288602 285.450454,163.362835 L283.050169,166.585519 L281.716678,168.062582 L280.916583,168.868253 L279.983139,169.673924 L279.449742,170.076759 L278.649647,170.479595 C278.560748,170.479595 278.471849,170.501974 278.382949,170.546734 C278.294049,170.591494 278.160701,170.613873 277.982902,170.613873 C277.894002,170.613873 277.827328,170.636253 277.782878,170.681013 C277.738428,170.725772 277.671754,170.748152 277.582854,170.748152 L277.182807,170.748152 L275.849315,170.345316 L274.915871,169.673924 L274.382475,169.002532 C274.026875,168.465415 273.804629,168.062584 273.715729,167.794025 C273.537929,167.346428 273.404581,166.965976 273.315681,166.652658 C273.226781,166.33934 273.093434,166.003647 272.915634,165.64557 L272.382237,163.631392 L271.715492,159.603038 L271.315444,155.708962 L270.648698,147.92081 L270.382,140.132658 L270.115302,132.478785 L270.115302,128.584709 C270.115302,127.868553 270.093077,127.197168 270.048627,126.570532 C270.004177,125.943896 269.981953,125.317269 269.981953,124.690633 C269.981953,123.974477 270.293097,123.303092 270.915397,122.676456 L271.048746,122.676456 L276.782759,117.708152 C277.760658,116.812958 278.716317,115.962536 279.649766,115.156861 C280.583215,114.351186 281.538874,113.456005 282.516773,112.471291 L286.650597,108.442937 C285.672698,109.159092 284.739263,109.919996 283.850264,110.725671 C282.961266,111.531346 282.027831,112.29225 281.049932,113.008405 C277.138338,116.231105 273.404599,119.72231 269.848603,123.482127 C268.070606,125.272515 266.337084,127.107636 264.647986,128.987544 C262.958889,130.867452 261.269816,132.792091 259.580719,134.761519 L254.780149,140.804051 L253.713356,142.281114 L252.513214,143.892456 C252.068714,144.340053 251.690895,144.832402 251.379746,145.369519 C251.068596,145.906636 250.735227,146.443744 250.379627,146.980861 C249.935128,147.607497 249.379512,147.987949 248.712763,148.122228 C248.046014,148.256507 247.401499,148.09985 246.7792,147.652253 C245.801301,146.846578 245.490156,145.906638 245.845756,144.832405 L245.979105,144.42957 C247.223703,140.132637 248.512732,135.902907 249.846231,131.740253 C251.179729,127.577599 252.513207,123.34787 253.846705,119.050937 L262.114353,93.8065823 L270.515349,68.6965063 L275.582617,53.7915949 L273.715729,57.5513924 C271.759931,61.579767 269.848613,65.5633221 267.981715,69.5021772 C266.114818,73.4410324 264.15905,77.4245875 262.114353,81.452962 L260.514163,84.4070886 L259.047322,87.3612152 L255.713593,93.2694684 L252.246515,99.043443 C251.001917,100.923351 249.668439,102.803231 248.246041,104.683139 C247.801541,105.220256 247.245925,105.533569 246.579176,105.623089 C245.912427,105.712608 245.312362,105.533572 244.778963,105.085975 C243.623264,104.011741 243.489916,102.803247 244.378915,101.460456 Z" id="k"></path>
                    <path d="M336.123132,93.6723038 L335.723085,93.6723038 C335.634185,93.7618232 335.545286,93.8065823 335.456386,93.8065823 L334.92299,94.0751392 C334.389591,94.2541781 333.989547,94.4332143 333.722847,94.6122532 C332.833849,95.0598503 332.078211,95.5969589 331.455912,96.2235949 C330.655813,96.7607115 329.855726,97.4320972 329.055627,98.2377722 C328.611128,98.5958499 328.233309,98.9539223 327.922159,99.312 C327.61101,99.6700777 327.233191,100.072909 326.788692,100.520506 L324.788454,103.071797 C324.343955,103.519395 323.988361,103.989365 323.721661,104.481722 C323.454961,104.974078 323.143816,105.444048 322.788217,105.891646 C322.432617,106.339243 322.099248,106.809213 321.788098,107.30157 C321.476949,107.793927 321.188028,108.263896 320.921329,108.711494 C320.29903,109.517169 319.721189,110.501868 319.18779,111.66562 C316.965293,115.425437 314.965076,119.543269 313.187078,124.019241 C312.742579,125.093474 312.342535,126.19007 311.986936,127.309063 C311.631336,128.428056 311.231293,129.524653 310.786793,130.598886 C310.431194,131.673119 310.120049,132.769716 309.853349,133.888709 C309.58665,135.007702 309.319954,136.104298 309.053254,137.178532 L308.519858,140.535494 C308.430958,141.07261 308.386508,141.609719 308.386508,142.146835 L308.386508,145.235241 L308.653207,146.443747 L308.786556,146.712304 L308.919905,146.846582 L309.053254,146.712304 C309.142154,146.712304 309.231053,146.667545 309.319953,146.578025 L310.386746,146.040911 L311.32019,144.966684 L312.386983,143.758177 L313.453776,142.415392 L314.38722,141.072608 C314.65392,140.62501 314.94284,140.15504 315.25399,139.662684 C315.565139,139.170327 315.85406,138.655598 316.120759,138.118481 C317.187558,136.238573 318.209891,134.179657 319.18779,131.941671 C319.632289,130.956957 320.076782,129.927499 320.521281,128.853266 C320.965781,127.779033 321.410273,126.660056 321.854773,125.496304 C322.032573,124.959187 322.232594,124.422079 322.454844,123.884962 C322.677094,123.347845 322.877115,122.810737 323.054915,122.27362 L323.721661,120.528 C323.899461,119.811845 324.077258,119.274736 324.255058,118.916658 L324.788454,117.171038 L324.921803,116.365367 L325.188502,115.559696 L325.721898,113.814076 L325.721898,113.411241 C325.721898,113.321721 325.744123,113.254583 325.788573,113.209823 C325.833023,113.165063 325.855247,113.097924 325.855247,113.008405 L325.988597,112.60557 C325.988597,112.426531 326.033046,112.292254 326.121946,112.202734 L326.388644,111.531342 C327.010943,110.27807 327.922153,109.427648 329.122302,108.980051 C330.32245,108.532453 331.544805,108.621972 332.789403,109.248608 C333.856202,109.696205 334.634064,110.434729 335.123014,111.464203 C335.611963,112.493676 335.767535,113.500755 335.589736,114.485468 L335.056339,117.708152 C334.878539,118.245269 334.767416,118.782377 334.722966,119.319494 C334.678516,119.85661 334.611842,120.393719 334.522942,120.930835 C334.078443,123.079302 333.811747,125.227736 333.722847,127.376203 C333.722847,127.465722 333.700623,127.532861 333.656173,127.57762 C333.611723,127.62238 333.589498,127.689519 333.589498,127.779038 L338.523417,119.453772 C339.501316,117.842422 340.456975,116.253476 341.390424,114.686886 C342.323872,113.120296 343.279532,111.576109 344.257431,110.054278 C345.235329,108.442929 346.213213,106.853983 347.191112,105.287392 C348.169011,103.720802 349.146895,102.176615 350.124793,100.654785 C350.569293,99.9386293 351.191582,99.4910389 351.991681,99.312 C352.79178,99.1329611 353.547418,99.2672383 354.258617,99.7148354 C354.969816,100.162433 355.414309,100.789059 355.592108,101.594734 C355.769908,102.400409 355.63656,103.161313 355.192061,103.877468 L349.458047,113.276962 L343.857383,122.676456 C342.879484,124.198286 341.968274,125.764853 341.123725,127.376203 C340.279177,128.987552 339.412416,130.598878 338.523417,132.210228 L335.989783,136.909975 C335.011884,138.521325 334.211797,140.13265 333.589498,141.744 C333.233899,142.549675 332.633834,143.131543 331.789285,143.48962 C330.944736,143.847698 330.122424,143.802939 329.322325,143.355342 C328.877826,143.265822 328.477783,142.952509 328.122183,142.415392 C327.944383,142.236354 327.766586,141.967799 327.588786,141.609722 C327.410987,141.430683 327.322088,141.296406 327.322088,141.206886 C327.322088,141.117367 327.277639,140.98309 327.188739,140.804051 L326.788692,139.729823 L326.255295,137.715646 L325.855247,133.955848 C325.766348,133.776809 325.721898,133.463496 325.721898,133.015899 L324.655105,134.761519 C323.943906,135.835752 323.299392,136.909969 322.721542,137.984203 C322.143693,139.058436 321.499179,140.087894 320.78798,141.072608 L318.787742,144.161013 L317.5876,145.638076 L317.054203,146.443747 C316.876404,146.712305 316.654157,146.9361 316.387458,147.115139 C315.676259,148.099853 314.742824,149.084552 313.587125,150.069266 C313.053726,150.516863 312.386987,150.919694 311.586888,151.277772 C311.231289,151.456811 310.786796,151.635847 310.253397,151.814886 C310.164497,151.814886 310.075598,151.859645 309.986698,151.949165 L307.919786,151.949165 C307.608637,151.949165 307.319717,151.859646 307.053017,151.680608 C306.341818,151.412049 305.808427,151.098736 305.452827,150.740658 C305.186127,150.561619 304.986106,150.337824 304.852756,150.069266 C304.719406,149.800708 304.563834,149.576912 304.386034,149.397873 L303.719288,148.189367 C303.541488,147.74177 303.430365,147.338938 303.385915,146.980861 C303.341465,146.622783 303.274791,146.264711 303.185892,145.906633 C303.185892,145.548555 303.163667,145.212862 303.119217,144.899544 C303.074767,144.586226 303.052542,144.250533 303.052542,143.892456 L303.052542,141.878278 C303.052542,141.251642 303.096992,140.580257 303.185892,139.864101 C303.274791,139.237465 303.341465,138.633218 303.385915,138.051342 C303.430365,137.469465 303.541488,136.865218 303.719288,136.238582 C303.808188,135.611946 303.897087,135.007699 303.985986,134.425823 C304.074886,133.843946 304.208234,133.239699 304.386034,132.613063 C304.563834,131.986427 304.719406,131.38218 304.852756,130.800304 C304.986106,130.218427 305.141678,129.61418 305.319478,128.987544 C305.497278,128.360908 305.65285,127.756661 305.7862,127.174785 C305.91955,126.592908 306.075122,126.03342 306.252922,125.496304 C306.430722,124.869668 306.608519,124.265421 306.786319,123.683544 C306.964118,123.101668 307.141915,122.54218 307.319715,122.005063 L309.72,115.022582 C310.164499,113.85883 310.631217,112.717474 311.120166,111.598481 C311.609115,110.479488 312.120282,109.382891 312.653681,108.308658 C312.831481,107.682022 313.053727,107.100155 313.320427,106.563038 L314.120522,104.951696 C314.387222,104.32506 314.676142,103.743193 314.987292,103.206076 C315.298441,102.668959 315.587361,102.131851 315.854061,101.594734 C316.120761,101.057618 316.409681,100.520509 316.720831,99.9833924 C317.03198,99.4462758 317.36535,98.9091672 317.720949,98.3720506 L319.721186,95.1493671 L320.78798,93.5380253 C321.143579,93.0009087 321.543623,92.4638002 321.988122,91.9266835 C322.432621,91.3895669 322.85489,90.8524584 323.254939,90.3153418 C323.654988,89.7782252 324.077257,89.2858757 324.521756,88.8382785 C324.966255,88.3011619 325.455197,87.7864328 325.988597,87.2940759 C326.521996,86.8017191 327.055387,86.3317491 327.588786,85.8841519 C327.855486,85.6155936 328.144406,85.3694188 328.455556,85.1456203 C328.766706,84.9218217 329.055626,84.720406 329.322325,84.5413671 C329.500125,84.3623282 329.677922,84.2280511 329.855722,84.1385316 L330.389119,83.8699747 C330.566918,83.6909358 330.744715,83.6014177 330.922515,83.6014177 L331.322563,83.1985823 C332.656061,82.3929074 334.100662,82.1914917 335.65641,82.5943291 C337.212158,82.9971666 338.390064,83.869968 339.190163,85.2127595 C339.990262,86.555551 340.190283,88.01022 339.790234,89.5768101 C339.390184,91.1434002 338.523424,92.329515 337.189925,93.1351899 L336.123132,93.6723038 Z" id="a"></path>
                </g>
            </g>
        </g>
    </g>
</svg>